<svg width="170" height="24" viewBox="0 0 170 24" fill="none" xmlns="http://www.w3.org/2000/svg">
<g clip-path="url(#clip0_89_12127)">
<path d="M33.3168 4.8C34.8421 4.8 36.1008 5.344 37.0928 6.432C38.0955 7.50933 38.5968 8.832 38.5968 10.4C38.5968 11.968 38.0955 13.296 37.0928 14.384C36.1008 15.4613 34.8421 16 33.3168 16H28.9968V4.8H33.3168ZM33.3168 14.944C34.5435 14.944 35.5461 14.5067 36.3248 13.632C37.1141 12.7573 37.5088 11.68 37.5088 10.4C37.5088 9.12 37.1141 8.04267 36.3248 7.168C35.5461 6.29333 34.5435 5.856 33.3168 5.856H30.1168V14.944H33.3168ZM44.0484 7.808C45.2324 7.808 46.1871 8.22933 46.9124 9.072C47.6484 9.904 48.0164 10.8907 48.0164 12.032C48.0164 12.1493 48.0058 12.3147 47.9844 12.528H40.9604C41.0671 13.3387 41.4084 13.984 41.9844 14.464C42.5711 14.9333 43.2911 15.168 44.1444 15.168C44.7524 15.168 45.2751 15.0453 45.7124 14.8C46.1604 14.544 46.4964 14.2133 46.7204 13.808L47.6484 14.352C47.2964 14.9173 46.8164 15.3653 46.2084 15.696C45.6004 16.0267 44.9071 16.192 44.1284 16.192C42.8698 16.192 41.8458 15.7973 41.0564 15.008C40.2671 14.2187 39.8724 13.216 39.8724 12C39.8724 10.8053 40.2618 9.808 41.0404 9.008C41.8191 8.208 42.8218 7.808 44.0484 7.808ZM44.0484 8.832C43.2164 8.832 42.5178 9.08267 41.9524 9.584C41.3978 10.0747 41.0671 10.7147 40.9604 11.504H46.9284C46.8218 10.6613 46.4964 10.0053 45.9524 9.536C45.4084 9.06667 44.7738 8.832 44.0484 8.832ZM53.9842 7.808C55.1255 7.808 56.0962 8.21333 56.8962 9.024C57.7068 9.83467 58.1122 10.8267 58.1122 12C58.1122 13.1733 57.7068 14.1653 56.8962 14.976C56.0962 15.7867 55.1255 16.192 53.9842 16.192C52.5655 16.192 51.4882 15.6053 50.7522 14.432V16H49.6962V4.8H50.7522V9.568C51.4882 8.39467 52.5655 7.808 53.9842 7.808ZM51.6642 14.256C52.2722 14.864 53.0188 15.168 53.9042 15.168C54.7895 15.168 55.5362 14.864 56.1442 14.256C56.7522 13.6373 57.0562 12.8853 57.0562 12C57.0562 11.1147 56.7522 10.368 56.1442 9.76C55.5362 9.14133 54.7895 8.832 53.9042 8.832C53.0188 8.832 52.2722 9.14133 51.6642 9.76C51.0562 10.368 50.7522 11.1147 50.7522 12C50.7522 12.8853 51.0562 13.6373 51.6642 14.256ZM60.94 6.08C60.7907 6.22933 60.6094 6.304 60.396 6.304C60.1827 6.304 60.0014 6.22933 59.852 6.08C59.7027 5.93067 59.628 5.74933 59.628 5.536C59.628 5.32267 59.7027 5.14133 59.852 4.992C60.0014 4.84267 60.1827 4.768 60.396 4.768C60.6094 4.768 60.7907 4.84267 60.94 4.992C61.0894 5.14133 61.164 5.32267 61.164 5.536C61.164 5.74933 61.0894 5.93067 60.94 6.08ZM59.868 16V8H60.924V16H59.868ZM67.4049 9.024H65.1009V13.872C65.1009 14.3093 65.1863 14.624 65.3569 14.816C65.5276 14.9973 65.7836 15.0933 66.1249 15.104C66.4663 15.104 66.8929 15.0933 67.4049 15.072V16C66.2849 16.1707 65.4423 16.0907 64.8769 15.76C64.3223 15.4293 64.0449 14.8 64.0449 13.872V9.024H62.3649V8H64.0449V6.08L65.1009 5.76V8H67.4049V9.024ZM73.4849 17.6H72.6849L79.0849 3.2H79.8849L73.4849 17.6ZM91.0413 16.192C89.3453 16.192 87.9426 15.632 86.8333 14.512C85.724 13.392 85.1693 12.0213 85.1693 10.4C85.1693 8.77867 85.724 7.408 86.8333 6.288C87.9426 5.168 89.3453 4.608 91.0413 4.608C92.076 4.608 93.0253 4.85867 93.8893 5.36C94.7533 5.85067 95.42 6.51733 95.8893 7.36L94.8973 7.936C94.5453 7.25333 94.0226 6.70933 93.3293 6.304C92.636 5.89867 91.8733 5.696 91.0413 5.696C89.644 5.696 88.5026 6.14933 87.6173 7.056C86.732 7.96267 86.2893 9.07733 86.2893 10.4C86.2893 11.7227 86.732 12.8373 87.6173 13.744C88.5026 14.6507 89.644 15.104 91.0413 15.104C91.8733 15.104 92.636 14.9013 93.3293 14.496C94.0226 14.0907 94.5453 13.5467 94.8973 12.864L95.8893 13.424C95.4306 14.2667 94.764 14.9387 93.8893 15.44C93.0253 15.9413 92.076 16.192 91.0413 16.192ZM98.6272 9.328C99.1178 8.35733 99.9605 7.872 101.155 7.872V8.896C100.43 8.896 99.8272 9.10933 99.3472 9.536C98.8672 9.96267 98.6272 10.6347 98.6272 11.552V16H97.5712V8H98.6272V9.328ZM105.814 7.808C106.998 7.808 107.953 8.22933 108.678 9.072C109.414 9.904 109.782 10.8907 109.782 12.032C109.782 12.1493 109.771 12.3147 109.75 12.528H102.726C102.833 13.3387 103.174 13.984 103.75 14.464C104.337 14.9333 105.057 15.168 105.91 15.168C106.518 15.168 107.041 15.0453 107.478 14.8C107.926 14.544 108.262 14.2133 108.486 13.808L109.414 14.352C109.062 14.9173 108.582 15.3653 107.974 15.696C107.366 16.0267 106.673 16.192 105.894 16.192C104.635 16.192 103.611 15.7973 102.822 15.008C102.033 14.2187 101.638 13.216 101.638 12C101.638 10.8053 102.027 9.808 102.806 9.008C103.585 8.208 104.587 7.808 105.814 7.808ZM105.814 8.832C104.982 8.832 104.283 9.08267 103.718 9.584C103.163 10.0747 102.833 10.7147 102.726 11.504H108.694C108.587 10.6613 108.262 10.0053 107.718 9.536C107.174 9.06667 106.539 8.832 105.814 8.832ZM118.342 4.8H119.398V16H118.342V14.432C117.606 15.6053 116.528 16.192 115.11 16.192C113.968 16.192 112.992 15.7867 112.182 14.976C111.382 14.1653 110.982 13.1733 110.982 12C110.982 10.8267 111.382 9.83467 112.182 9.024C112.992 8.21333 113.968 7.808 115.11 7.808C116.528 7.808 117.606 8.39467 118.342 9.568V4.8ZM112.95 14.256C113.558 14.864 114.304 15.168 115.19 15.168C116.075 15.168 116.822 14.864 117.43 14.256C118.038 13.6373 118.342 12.8853 118.342 12C118.342 11.1147 118.038 10.368 117.43 9.76C116.822 9.14133 116.075 8.832 115.19 8.832C114.304 8.832 113.558 9.14133 112.95 9.76C112.342 10.368 112.038 11.1147 112.038 12C112.038 12.8853 112.342 13.6373 112.95 14.256ZM122.706 6.08C122.556 6.22933 122.375 6.304 122.162 6.304C121.948 6.304 121.767 6.22933 121.618 6.08C121.468 5.93067 121.394 5.74933 121.394 5.536C121.394 5.32267 121.468 5.14133 121.618 4.992C121.767 4.84267 121.948 4.768 122.162 4.768C122.375 4.768 122.556 4.84267 122.706 4.992C122.855 5.14133 122.93 5.32267 122.93 5.536C122.93 5.74933 122.855 5.93067 122.706 6.08ZM121.634 16V8H122.69V16H121.634ZM129.171 9.024H126.867V13.872C126.867 14.3093 126.952 14.624 127.123 14.816C127.293 14.9973 127.549 15.0933 127.891 15.104C128.232 15.104 128.659 15.0933 129.171 15.072V16C128.051 16.1707 127.208 16.0907 126.643 15.76C126.088 15.4293 125.811 14.8 125.811 13.872V9.024H124.131V8H125.811V6.08L126.867 5.76V8H129.171V9.024ZM138.659 16.192C137.453 16.192 136.451 15.792 135.651 14.992C134.851 14.1813 134.451 13.184 134.451 12C134.451 10.816 134.851 9.824 135.651 9.024C136.451 8.21333 137.453 7.808 138.659 7.808C139.448 7.808 140.157 8 140.787 8.384C141.416 8.75733 141.875 9.264 142.163 9.904L141.299 10.4C141.085 9.92 140.739 9.54133 140.259 9.264C139.789 8.976 139.256 8.832 138.659 8.832C137.773 8.832 137.027 9.14133 136.419 9.76C135.811 10.368 135.507 11.1147 135.507 12C135.507 12.8853 135.811 13.6373 136.419 14.256C137.027 14.864 137.773 15.168 138.659 15.168C139.256 15.168 139.789 15.0293 140.259 14.752C140.728 14.464 141.096 14.08 141.363 13.6L142.243 14.112C141.912 14.752 141.427 15.2587 140.787 15.632C140.147 16.0053 139.437 16.192 138.659 16.192ZM150.561 8H151.617V16H150.561V14.432C149.825 15.6053 148.747 16.192 147.329 16.192C146.187 16.192 145.211 15.7867 144.401 14.976C143.601 14.1653 143.201 13.1733 143.201 12C143.201 10.8267 143.601 9.83467 144.401 9.024C145.211 8.21333 146.187 7.808 147.329 7.808C148.747 7.808 149.825 8.39467 150.561 9.568V8ZM145.169 14.256C145.777 14.864 146.523 15.168 147.409 15.168C148.294 15.168 149.041 14.864 149.649 14.256C150.257 13.6373 150.561 12.8853 150.561 12C150.561 11.1147 150.257 10.368 149.649 9.76C149.041 9.14133 148.294 8.832 147.409 8.832C146.523 8.832 145.777 9.14133 145.169 9.76C144.561 10.368 144.257 11.1147 144.257 12C144.257 12.8853 144.561 13.6373 145.169 14.256ZM154.908 9.328C155.399 8.35733 156.242 7.872 157.436 7.872V8.896C156.711 8.896 156.108 9.10933 155.628 9.536C155.148 9.96267 154.908 10.6347 154.908 11.552V16H153.852V8H154.908V9.328ZM165.279 4.8H166.335V16H165.279V14.432C164.543 15.6053 163.466 16.192 162.047 16.192C160.906 16.192 159.93 15.7867 159.119 14.976C158.319 14.1653 157.919 13.1733 157.919 12C157.919 10.8267 158.319 9.83467 159.119 9.024C159.93 8.21333 160.906 7.808 162.047 7.808C163.466 7.808 164.543 8.39467 165.279 9.568V4.8ZM159.887 14.256C160.495 14.864 161.242 15.168 162.127 15.168C163.013 15.168 163.759 14.864 164.367 14.256C164.975 13.6373 165.279 12.8853 165.279 12C165.279 11.1147 164.975 10.368 164.367 9.76C163.759 9.14133 163.013 8.832 162.127 8.832C161.242 8.832 160.495 9.14133 159.887 9.76C159.279 10.368 158.975 11.1147 158.975 12C158.975 12.8853 159.279 13.6373 159.887 14.256Z" fill="#F0F0D6"/>
<path d="M19.405 21.1226V21.162H19.4419C19.4489 21.1621 19.4557 21.1603 19.4617 21.1569C19.4641 21.1553 19.4661 21.153 19.4674 21.1503C19.4687 21.1477 19.4693 21.1448 19.4691 21.1419C19.4693 21.139 19.4687 21.1361 19.4674 21.1336C19.4661 21.131 19.4641 21.1288 19.4617 21.1272C19.4558 21.1236 19.4489 21.1219 19.4419 21.1222H19.405V21.1226ZM19.4423 21.0947C19.4581 21.0937 19.4738 21.0982 19.4867 21.1075C19.4918 21.1117 19.4959 21.117 19.4986 21.1231C19.5013 21.1291 19.5025 21.1357 19.5022 21.1424C19.5024 21.1481 19.5014 21.1537 19.4993 21.159C19.4971 21.1643 19.4939 21.1691 19.4897 21.173C19.4798 21.1816 19.4674 21.1867 19.4543 21.1877L19.5038 21.2438H19.4657L19.4202 21.1881H19.4054V21.2438H19.3735V21.0948H19.4428L19.4423 21.0947ZM19.4324 21.2953C19.4491 21.2954 19.4657 21.2921 19.481 21.2854C19.4958 21.2791 19.5092 21.27 19.5206 21.2587C19.532 21.2474 19.5411 21.234 19.5474 21.2193C19.5604 21.1881 19.5604 21.153 19.5474 21.1218C19.541 21.1071 19.5319 21.0937 19.5206 21.0824C19.5092 21.0711 19.4958 21.062 19.481 21.0557C19.4656 21.0494 19.4491 21.0462 19.4324 21.0464C19.4155 21.0462 19.3987 21.0494 19.3829 21.0557C19.3678 21.0619 19.3541 21.0709 19.3425 21.0824C19.3249 21.1002 19.3131 21.1228 19.3084 21.1474C19.3037 21.1719 19.3064 21.1973 19.316 21.2203C19.3221 21.2351 19.331 21.2485 19.3425 21.2597C19.3541 21.2711 19.3678 21.2802 19.3829 21.2864C19.3986 21.2931 19.4154 21.2964 19.4324 21.2963M19.4324 21.0105C19.4759 21.0105 19.5177 21.0275 19.5487 21.0578C19.5637 21.0724 19.5756 21.0898 19.5838 21.109C19.5922 21.1287 19.5966 21.1499 19.5966 21.1713C19.5966 21.1927 19.5922 21.2139 19.5838 21.2336C19.5754 21.2527 19.5635 21.27 19.5487 21.2847C19.5335 21.2992 19.5159 21.3109 19.4966 21.3192C19.4763 21.3278 19.4545 21.3322 19.4324 21.332C19.4101 21.3322 19.388 21.3278 19.3675 21.3192C19.348 21.3111 19.3301 21.2994 19.3149 21.2847C19.3001 21.2695 19.2884 21.2516 19.2804 21.2319C19.2719 21.2122 19.2676 21.191 19.2676 21.1696C19.2676 21.1482 19.2719 21.127 19.2804 21.1073C19.2886 21.0881 19.3005 21.0707 19.3154 21.0561C19.3304 21.0412 19.3483 21.0295 19.368 21.0217C19.3885 21.0131 19.4106 21.0087 19.4329 21.0089M4.27725 20.4348C4.27725 20.1506 4.46431 19.917 4.77005 19.917C5.06222 19.917 5.25938 20.1405 5.25938 20.4348C5.25938 20.7291 5.06222 20.9526 4.77005 20.9526C4.46431 20.9526 4.27725 20.7191 4.27725 20.4348ZM5.59244 20.4348V19.6259H5.23919V19.8229C5.12715 19.6773 4.95721 19.586 4.7261 19.586C4.27081 19.586 3.91351 19.9415 3.91351 20.4352C3.91351 20.9289 4.27062 21.2844 4.7261 21.2844C4.95711 21.2844 5.12715 21.193 5.23919 21.0475V21.2438H5.59204V20.4348H5.59244ZM17.5281 20.4348C17.5281 20.1506 17.7152 19.917 18.021 19.917C18.3135 19.917 18.5104 20.1405 18.5104 20.4348C18.5104 20.7291 18.3135 20.9526 18.021 20.9526C17.7153 20.9526 17.5281 20.7191 17.5281 20.4348ZM18.8437 20.4348V18.9766H18.4902V19.8229C18.3781 19.6773 18.2082 19.586 17.9771 19.586C17.5218 19.586 17.1645 19.9415 17.1645 20.4352C17.1645 20.9289 17.5216 21.2844 17.9771 21.2844C18.2082 21.2844 18.3781 21.193 18.4902 21.0475V21.2438H18.8437V20.4348ZM9.97667 19.9004C10.2043 19.9004 10.3505 20.0425 10.3878 20.2926H9.54494C9.58265 20.0591 9.72507 19.9004 9.97677 19.9004M9.9838 19.5851C9.50772 19.5851 9.17467 19.9299 9.17467 20.4343C9.17467 20.9486 9.52108 21.2836 10.0075 21.2836C10.2521 21.2836 10.4762 21.2228 10.6734 21.0569L10.5003 20.7963C10.3641 20.9047 10.1907 20.9655 10.0276 20.9655C9.8 20.9655 9.59274 20.8606 9.54177 20.5694H10.748C10.7515 20.5257 10.755 20.4815 10.755 20.4342C10.7515 19.93 10.4383 19.585 9.9836 19.585M14.2485 20.4342C14.2485 20.15 14.4355 19.9164 14.7413 19.9164C15.0334 19.9164 15.2306 20.1399 15.2306 20.4342C15.2306 20.7285 15.0334 20.952 14.7413 20.952C14.4355 20.952 14.2484 20.7185 14.2484 20.4342M15.5636 20.4342V19.6259H15.2105V19.8229C15.0981 19.6773 14.9285 19.586 14.6974 19.586C14.2421 19.586 13.8848 19.9415 13.8848 20.4352C13.8848 20.9289 14.2419 21.2844 14.6974 21.2844C14.9285 21.2844 15.0981 21.193 15.2105 21.0475V21.2438H15.5637V20.4348L15.5636 20.4342ZM12.2536 20.4342C12.2536 20.9248 12.5967 21.2835 13.1202 21.2835C13.3649 21.2835 13.5279 21.2293 13.7042 21.0906L13.5346 20.8064C13.4019 20.9013 13.2627 20.952 13.109 20.952C12.827 20.9486 12.6196 20.7456 12.6196 20.4342C12.6196 20.1229 12.827 19.92 13.109 19.9164C13.2623 19.9164 13.4015 19.9672 13.5346 20.0621L13.7042 19.7778C13.5276 19.6392 13.3646 19.585 13.1202 19.585C12.5967 19.585 12.2536 19.9435 12.2536 20.4342ZM16.8075 19.585C16.6037 19.585 16.471 19.6799 16.3792 19.822V19.6259H16.0291V21.243H16.3828V20.3365C16.3828 20.0689 16.4983 19.9202 16.7292 19.9202C16.8048 19.9191 16.8799 19.9329 16.9501 19.9609L17.059 19.6294C16.9808 19.5988 16.8788 19.5853 16.8073 19.5853M7.33887 19.7545C7.16892 19.6429 6.93475 19.5853 6.67642 19.5853C6.26488 19.5853 5.99992 19.7817 5.99992 20.103C5.99992 20.3666 6.19718 20.5293 6.56042 20.58L6.72729 20.6037C6.92099 20.6308 7.01244 20.6815 7.01244 20.7729C7.01244 20.8979 6.88377 20.9692 6.64217 20.9692C6.39751 20.9692 6.22093 20.8914 6.10187 20.8001L5.93588 21.0743C6.12958 21.2164 6.37425 21.2841 6.63921 21.2841C7.10835 21.2841 7.38024 21.0642 7.38024 20.7563C7.38024 20.4721 7.16625 20.3234 6.81271 20.2726L6.64623 20.2486C6.49332 20.2289 6.37078 20.1982 6.37078 20.0899C6.37078 19.9716 6.48629 19.9005 6.68008 19.9005C6.88744 19.9005 7.08816 19.9783 7.18654 20.0391L7.33946 19.7549L7.33887 19.7545ZM11.8968 19.5856C11.693 19.5856 11.5603 19.6805 11.4689 19.8225V19.6259H11.1189V21.243H11.4721V20.3365C11.4721 20.0689 11.5876 19.9202 11.8185 19.9202C11.8941 19.9191 11.9692 19.9329 12.0394 19.9609L12.1483 19.6294C12.0701 19.5988 11.9682 19.5853 11.8966 19.5853M8.88239 19.6259H8.30477V19.1353H7.94767V19.6259H7.61818V19.9473H7.94767V20.685C7.94767 21.0602 8.09395 21.2837 8.51183 21.2837C8.66514 21.2837 8.84171 21.2364 8.95376 21.1586L8.85171 20.8575C8.7463 20.9183 8.6308 20.9489 8.53895 20.9489C8.36237 20.9489 8.30477 20.8406 8.30477 20.6783V19.9476H8.88239V19.6259ZM3.60114 21.2434V20.2285C3.60114 19.8463 3.35648 19.5891 2.96206 19.5857C2.7547 19.5822 2.54082 19.6465 2.39107 19.8734C2.27902 19.6941 2.10245 19.5857 1.85422 19.5857C1.68072 19.5857 1.51117 19.6364 1.37844 19.8258V19.6259H1.0249V21.243H1.38122V20.3463C1.38122 20.0656 1.5376 19.9164 1.7791 19.9164C2.01367 19.9164 2.13234 20.0687 2.13234 20.3428V21.2428H2.48945V20.3461C2.48945 20.0654 2.65246 19.9162 2.88693 19.9162C3.12814 19.9162 3.24325 20.0685 3.24325 20.3426V21.2426L3.60114 21.2434Z" fill="#F0F0D6"/>
<path d="M12.5764 16.8799H7.22314V7.30273H12.5764L12.5764 16.8799Z" fill="#FF5F00"/>
<path d="M7.56175 12.0909C7.56175 10.1481 8.4755 8.41755 9.89837 7.30228C8.82133 6.45684 7.48919 5.99799 6.1176 6.00001C2.73886 6.00001 0 8.72694 0 12.0909C0 15.4548 2.73886 18.1817 6.1176 18.1817C7.48922 18.1838 8.8214 17.7249 9.89847 16.8795C8.47569 15.7644 7.56175 14.0337 7.56175 12.0909Z" fill="#EB001B"/>
<path d="M19.7979 12.0909C19.7979 15.4548 17.059 18.1817 13.6803 18.1817C12.3085 18.1837 10.9762 17.7249 9.89893 16.8795C11.3222 15.7642 12.2359 14.0337 12.2359 12.0909C12.2359 10.148 11.3222 8.41755 9.89893 7.30228C10.9762 6.45687 12.3085 5.99802 13.6802 6.00001C17.0589 6.00001 19.7978 8.72694 19.7978 12.0909" fill="#F79E1B"/>
</g>
<defs>
<clipPath id="clip0_89_12127">
<rect width="169.271" height="24" fill="white"/>
</clipPath>
</defs>
</svg>
