<svg width="55" height="64" viewBox="0 0 55 64" fill="none" xmlns="http://www.w3.org/2000/svg">
<circle cx="27.1836" cy="22" r="22" fill="#DBF227"/>
<path d="M13.431 27.0703V19.4403L11.695 19.9023V18.3903L14.243 17.2703H15.391V27.0703H13.431ZM20.7846 27.2383C20.1219 27.2383 19.5153 27.117 18.9646 26.8743C18.4233 26.6316 17.9939 26.291 17.6766 25.8523C17.3593 25.4136 17.2006 24.905 17.2006 24.3263C17.2006 23.925 17.2659 23.561 17.3966 23.2343C17.5366 22.9076 17.7279 22.6183 17.9706 22.3663C18.2133 22.1143 18.5026 21.923 18.8386 21.7923C18.4186 21.5963 18.0779 21.3163 17.8166 20.9523C17.5646 20.5883 17.4386 20.1776 17.4386 19.7203C17.4386 19.263 17.5646 18.8336 17.8166 18.4323C18.0686 18.031 18.4419 17.709 18.9366 17.4663C19.4313 17.2236 20.0473 17.1023 20.7846 17.1023C21.5219 17.1023 22.1379 17.2236 22.6326 17.4663C23.1273 17.709 23.5006 18.031 23.7526 18.4323C24.0046 18.8336 24.1306 19.263 24.1306 19.7203C24.1306 20.1683 23.9999 20.579 23.7386 20.9523C23.4866 21.3163 23.1506 21.5963 22.7306 21.7923C23.0666 21.9323 23.3559 22.1283 23.5986 22.3803C23.8506 22.623 24.0419 22.9076 24.1726 23.2343C24.3126 23.561 24.3826 23.925 24.3826 24.3263C24.3826 24.905 24.2193 25.4136 23.8926 25.8523C23.5753 26.291 23.1459 26.6316 22.6046 26.8743C22.0633 27.117 21.4566 27.2383 20.7846 27.2383ZM20.7846 25.6563C21.3633 25.6563 21.7973 25.5163 22.0866 25.2363C22.3759 24.9563 22.5206 24.6016 22.5206 24.1723C22.5206 23.6963 22.3666 23.323 22.0586 23.0523C21.7599 22.7723 21.3353 22.6323 20.7846 22.6323C20.2433 22.6323 19.8139 22.7723 19.4966 23.0523C19.1886 23.323 19.0346 23.6963 19.0346 24.1723C19.0346 24.6016 19.1839 24.9563 19.4826 25.2363C19.7813 25.5163 20.2153 25.6563 20.7846 25.6563ZM20.7846 21.2463C21.2606 21.2463 21.6246 21.125 21.8766 20.8823C22.1379 20.6396 22.2686 20.327 22.2686 19.9443C22.2686 19.5336 22.1379 19.2163 21.8766 18.9923C21.6246 18.759 21.2606 18.6423 20.7846 18.6423C20.3179 18.6423 19.9539 18.759 19.6926 18.9923C19.4313 19.2163 19.3006 19.5383 19.3006 19.9583C19.3006 20.3316 19.4313 20.6396 19.6926 20.8823C19.9539 21.125 20.3179 21.2463 20.7846 21.2463ZM26.186 27.0703V17.2703H28.076V21.1483L31.618 17.2703H33.942L30.344 21.1483L34.054 27.0703H31.744L28.986 22.6183L28.076 23.5983V27.0703H26.186ZM37.6145 27.0703V18.7963H34.7445V17.2703H42.3465V18.7963H39.4905V27.0703H37.6145Z" fill="#010F17"/>
<path d="M2.83068 61V60.088L5.79468 57.064C6.58668 56.272 6.98268 55.592 6.98268 55.024C6.98268 54.552 6.83868 54.184 6.55068 53.92C6.26268 53.656 5.91068 53.524 5.49468 53.524C4.70268 53.524 4.12668 53.9 3.76668 54.652L2.83068 54.1C3.09468 53.556 3.45868 53.144 3.92268 52.864C4.39468 52.584 4.91468 52.444 5.48268 52.444C6.18668 52.444 6.79868 52.676 7.31868 53.14C7.83868 53.604 8.09868 54.228 8.09868 55.012C8.09868 55.86 7.59868 56.784 6.59868 57.784L4.45068 59.92H8.25468V61H2.83068ZM10.1788 61.132C9.96281 61.132 9.77881 61.056 9.62681 60.904C9.47481 60.752 9.39881 60.568 9.39881 60.352C9.39881 60.136 9.47481 59.952 9.62681 59.8C9.77881 59.648 9.96281 59.572 10.1788 59.572C10.4028 59.572 10.5868 59.648 10.7308 59.8C10.8828 59.952 10.9588 60.136 10.9588 60.352C10.9588 60.568 10.8828 60.752 10.7308 60.904C10.5868 61.056 10.4028 61.132 10.1788 61.132ZM18.3528 58.36V59.404H17.3328V61H16.2168V59.404H11.9328V58.36L14.9448 52.6H16.1448L13.1328 58.36H16.2168V55.984H17.3328V58.36H18.3528ZM23.5369 56.656C23.9449 56.864 24.2649 57.144 24.4969 57.496C24.7289 57.848 24.8449 58.248 24.8449 58.696C24.8449 59.464 24.5769 60.068 24.0409 60.508C23.5049 60.94 22.8129 61.156 21.9649 61.156C21.1249 61.156 20.4369 60.94 19.9009 60.508C19.3649 60.068 19.0969 59.464 19.0969 58.696C19.0969 58.248 19.2129 57.848 19.4449 57.496C19.6769 57.144 19.9969 56.864 20.4049 56.656C19.7169 56.224 19.3729 55.612 19.3729 54.82C19.3729 54.06 19.6249 53.476 20.1289 53.068C20.6409 52.652 21.2529 52.444 21.9649 52.444C22.6849 52.444 23.2969 52.652 23.8009 53.068C24.3129 53.476 24.5689 54.06 24.5689 54.82C24.5689 55.612 24.2249 56.224 23.5369 56.656ZM21.9649 53.512C21.5409 53.512 21.1849 53.624 20.8969 53.848C20.6169 54.072 20.4769 54.404 20.4769 54.844C20.4769 55.268 20.6209 55.6 20.9089 55.84C21.1969 56.072 21.5489 56.188 21.9649 56.188C22.3809 56.188 22.7329 56.072 23.0209 55.84C23.3089 55.6 23.4529 55.268 23.4529 54.844C23.4529 54.404 23.3129 54.072 23.0329 53.848C22.7529 53.624 22.3969 53.512 21.9649 53.512ZM21.9649 60.088C22.5009 60.088 22.9289 59.964 23.2489 59.716C23.5769 59.46 23.7409 59.096 23.7409 58.624C23.7409 58.16 23.5769 57.804 23.2489 57.556C22.9289 57.3 22.5009 57.172 21.9649 57.172C21.4369 57.172 21.0089 57.3 20.6809 57.556C20.3609 57.804 20.2009 58.16 20.2009 58.624C20.2009 59.096 20.3609 59.46 20.6809 59.716C21.0089 59.964 21.4369 60.088 21.9649 60.088ZM31.4651 59.968C30.8971 60.76 30.1011 61.156 29.0771 61.156C28.0531 61.156 27.2571 60.76 26.6891 59.968C26.1211 59.176 25.8371 58.12 25.8371 56.8C25.8371 55.48 26.1211 54.424 26.6891 53.632C27.2571 52.84 28.0531 52.444 29.0771 52.444C30.1011 52.444 30.8971 52.84 31.4651 53.632C32.0331 54.424 32.3171 55.48 32.3171 56.8C32.3171 58.12 32.0331 59.176 31.4651 59.968ZM27.5051 59.212C27.8731 59.78 28.3971 60.064 29.0771 60.064C29.7571 60.064 30.2811 59.78 30.6491 59.212C31.0251 58.644 31.2131 57.84 31.2131 56.8C31.2131 55.76 31.0251 54.956 30.6491 54.388C30.2811 53.812 29.7571 53.524 29.0771 53.524C28.3971 53.524 27.8731 53.808 27.5051 54.376C27.1371 54.944 26.9531 55.752 26.9531 56.8C26.9531 57.84 27.1371 58.644 27.5051 59.212ZM41.8557 56.836V57.34C41.8557 58.436 41.4797 59.348 40.7277 60.076C39.9757 60.796 38.9797 61.156 37.7397 61.156C36.4597 61.156 35.3997 60.736 34.5597 59.896C33.7277 59.048 33.3117 58.016 33.3117 56.8C33.3117 55.584 33.7277 54.556 34.5597 53.716C35.3997 52.868 36.4517 52.444 37.7157 52.444C38.4917 52.444 39.2037 52.632 39.8517 53.008C40.4997 53.376 40.9997 53.864 41.3517 54.472L40.3917 55.036C40.1517 54.58 39.7877 54.216 39.2997 53.944C38.8197 53.664 38.2877 53.524 37.7037 53.524C36.7437 53.524 35.9557 53.84 35.3397 54.472C34.7237 55.096 34.4157 55.872 34.4157 56.8C34.4157 57.728 34.7237 58.504 35.3397 59.128C35.9637 59.752 36.7677 60.064 37.7517 60.064C38.5917 60.064 39.2717 59.86 39.7917 59.452C40.3117 59.036 40.6277 58.5 40.7397 57.844H37.6557V56.836H41.8557ZM51.0727 52.6V61H49.9687V54.436L47.2207 59.008H47.0767L44.3287 54.448V61H43.2127V52.6H44.4727L47.1487 57.04L49.8127 52.6H51.0727Z" fill="#F0F0D6"/>
</svg>
