<svg width="55" height="65" viewBox="0 0 55 65" fill="none" xmlns="http://www.w3.org/2000/svg">
<path d="M6.62428 56.544C7.26428 56.664 7.78828 56.94 8.19628 57.372C8.60428 57.804 8.80828 58.352 8.80828 59.016C8.80828 59.832 8.52828 60.476 7.96828 60.948C7.40828 61.42 6.72828 61.656 5.92828 61.656C5.28828 61.656 4.72028 61.512 4.22428 61.224C3.72828 60.928 3.37628 60.504 3.16828 59.952L4.10428 59.4C4.35228 60.176 4.96028 60.564 5.92828 60.564C6.44828 60.564 6.87228 60.428 7.20028 60.156C7.52828 59.884 7.69228 59.504 7.69228 59.016C7.69228 58.528 7.52828 58.148 7.20028 57.876C6.87228 57.596 6.44828 57.456 5.92828 57.456H5.64028L5.19628 56.772L7.14028 54.144H3.40828V53.1H8.44828V54.084L6.62428 56.544ZM10.4718 61.632C10.2558 61.632 10.0718 61.556 9.91978 61.404C9.76778 61.252 9.69178 61.068 9.69178 60.852C9.69178 60.636 9.76778 60.452 9.91978 60.3C10.0718 60.148 10.2558 60.072 10.4718 60.072C10.6958 60.072 10.8798 60.148 11.0238 60.3C11.1758 60.452 11.2518 60.636 11.2518 60.852C11.2518 61.068 11.1758 61.252 11.0238 61.404C10.8798 61.556 10.6958 61.632 10.4718 61.632ZM12.3697 61.5V60.588L15.3337 57.564C16.1257 56.772 16.5217 56.092 16.5217 55.524C16.5217 55.052 16.3777 54.684 16.0897 54.42C15.8017 54.156 15.4497 54.024 15.0337 54.024C14.2417 54.024 13.6657 54.4 13.3057 55.152L12.3697 54.6C12.6337 54.056 12.9977 53.644 13.4617 53.364C13.9337 53.084 14.4537 52.944 15.0217 52.944C15.7257 52.944 16.3377 53.176 16.8577 53.64C17.3777 54.104 17.6377 54.728 17.6377 55.512C17.6377 56.36 17.1377 57.284 16.1377 58.284L13.9897 60.42H17.7937V61.5H12.3697ZM23.1033 57.156C23.5113 57.364 23.8313 57.644 24.0633 57.996C24.2953 58.348 24.4113 58.748 24.4113 59.196C24.4113 59.964 24.1433 60.568 23.6073 61.008C23.0713 61.44 22.3793 61.656 21.5313 61.656C20.6913 61.656 20.0033 61.44 19.4673 61.008C18.9313 60.568 18.6633 59.964 18.6633 59.196C18.6633 58.748 18.7793 58.348 19.0113 57.996C19.2433 57.644 19.5633 57.364 19.9713 57.156C19.2833 56.724 18.9393 56.112 18.9393 55.32C18.9393 54.56 19.1913 53.976 19.6953 53.568C20.2073 53.152 20.8193 52.944 21.5313 52.944C22.2513 52.944 22.8633 53.152 23.3673 53.568C23.8793 53.976 24.1353 54.56 24.1353 55.32C24.1353 56.112 23.7913 56.724 23.1033 57.156ZM21.5313 54.012C21.1073 54.012 20.7513 54.124 20.4633 54.348C20.1833 54.572 20.0433 54.904 20.0433 55.344C20.0433 55.768 20.1873 56.1 20.4753 56.34C20.7633 56.572 21.1153 56.688 21.5313 56.688C21.9473 56.688 22.2993 56.572 22.5873 56.34C22.8753 56.1 23.0193 55.768 23.0193 55.344C23.0193 54.904 22.8793 54.572 22.5993 54.348C22.3193 54.124 21.9633 54.012 21.5313 54.012ZM21.5313 60.588C22.0673 60.588 22.4953 60.464 22.8153 60.216C23.1433 59.96 23.3073 59.596 23.3073 59.124C23.3073 58.66 23.1433 58.304 22.8153 58.056C22.4953 57.8 22.0673 57.672 21.5313 57.672C21.0033 57.672 20.5753 57.8 20.2473 58.056C19.9273 58.304 19.7673 58.66 19.7673 59.124C19.7673 59.596 19.9273 59.96 20.2473 60.216C20.5753 60.464 21.0033 60.588 21.5313 60.588ZM31.0315 60.468C30.4635 61.26 29.6675 61.656 28.6435 61.656C27.6195 61.656 26.8235 61.26 26.2555 60.468C25.6875 59.676 25.4035 58.62 25.4035 57.3C25.4035 55.98 25.6875 54.924 26.2555 54.132C26.8235 53.34 27.6195 52.944 28.6435 52.944C29.6675 52.944 30.4635 53.34 31.0315 54.132C31.5995 54.924 31.8835 55.98 31.8835 57.3C31.8835 58.62 31.5995 59.676 31.0315 60.468ZM27.0715 59.712C27.4395 60.28 27.9635 60.564 28.6435 60.564C29.3235 60.564 29.8475 60.28 30.2155 59.712C30.5915 59.144 30.7795 58.34 30.7795 57.3C30.7795 56.26 30.5915 55.456 30.2155 54.888C29.8475 54.312 29.3235 54.024 28.6435 54.024C27.9635 54.024 27.4395 54.308 27.0715 54.876C26.7035 55.444 26.5195 56.252 26.5195 57.3C26.5195 58.34 26.7035 59.144 27.0715 59.712ZM41.4221 57.336V57.84C41.4221 58.936 41.0461 59.848 40.2941 60.576C39.5421 61.296 38.5461 61.656 37.3061 61.656C36.0261 61.656 34.9661 61.236 34.1261 60.396C33.2941 59.548 32.8781 58.516 32.8781 57.3C32.8781 56.084 33.2941 55.056 34.1261 54.216C34.9661 53.368 36.0181 52.944 37.2821 52.944C38.0581 52.944 38.7701 53.132 39.4181 53.508C40.0661 53.876 40.5661 54.364 40.9181 54.972L39.9581 55.536C39.7181 55.08 39.3541 54.716 38.8661 54.444C38.3861 54.164 37.8541 54.024 37.2701 54.024C36.3101 54.024 35.5221 54.34 34.9061 54.972C34.2901 55.596 33.9821 56.372 33.9821 57.3C33.9821 58.228 34.2901 59.004 34.9061 59.628C35.5301 60.252 36.3341 60.564 37.3181 60.564C38.1581 60.564 38.8381 60.36 39.3581 59.952C39.8781 59.536 40.1941 59 40.3061 58.344H37.2221V57.336H41.4221ZM50.6392 53.1V61.5H49.5352V54.936L46.7872 59.508H46.6432L43.8952 54.948V61.5H42.7792V53.1H44.0392L46.7152 57.54L49.3792 53.1H50.6392Z" fill="#F0F0D6"/>
<circle cx="27.1836" cy="22.5" r="22" fill="white" stroke="#A5B2BA"/>
<path d="M11.9567 27.5V26.24L15.3727 22.754C16.2034 21.9233 16.6187 21.2047 16.6187 20.598C16.6187 20.122 16.474 19.7533 16.1847 19.492C15.9047 19.2213 15.5454 19.086 15.1067 19.086C14.2854 19.086 13.6787 19.492 13.2867 20.304L11.9287 19.506C12.2367 18.8527 12.6707 18.358 13.2307 18.022C13.7907 17.686 14.4114 17.518 15.0927 17.518C15.9514 17.518 16.6887 17.7887 17.3047 18.33C17.9207 18.8713 18.2287 19.6087 18.2287 20.542C18.2287 21.5407 17.6734 22.6047 16.5627 23.734L14.3507 25.946H18.4107V27.5H11.9567ZM26.6098 24.238V25.736H25.4898V27.5H23.8658V25.736H19.0498V24.238L22.4238 17.7H24.1738L20.7998 24.238H23.8658V21.69H25.4898V24.238H26.6098ZM35.2209 27.5H33.3029L29.4389 22.838V27.5H27.8289V17.7H29.4389V22.096L33.1629 17.7H35.0809L31.1189 22.474L35.2209 27.5ZM42.6344 17.7V19.24H39.8764V27.5H38.2664V19.24H35.4944V17.7H42.6344Z" fill="#A5B2BA"/>
</svg>
