<svg width="146" height="24" viewBox="0 0 146 24" fill="none" xmlns="http://www.w3.org/2000/svg">
<g clip-path="url(#clip0_89_12144)">
<path d="M35.7148 8H36.7708V15.68C36.7708 16.832 36.3762 17.7387 35.5868 18.4C34.7975 19.0613 33.8535 19.392 32.7548 19.392C30.8775 19.392 29.6135 18.7413 28.9628 17.44L29.8908 16.912C30.3708 17.8827 31.3255 18.368 32.7548 18.368C33.6722 18.368 34.3922 18.1227 34.9148 17.632C35.4482 17.152 35.7148 16.5013 35.7148 15.68V14.432C34.9788 15.6053 33.9015 16.192 32.4828 16.192C31.3415 16.192 30.3655 15.7867 29.5548 14.976C28.7548 14.1653 28.3548 13.1733 28.3548 12C28.3548 10.8267 28.7548 9.83467 29.5548 9.024C30.3655 8.21333 31.3415 7.808 32.4828 7.808C33.9015 7.808 34.9788 8.39467 35.7148 9.568V8ZM30.3228 14.256C30.9308 14.864 31.6775 15.168 32.5628 15.168C33.4482 15.168 34.1948 14.864 34.8028 14.256C35.4108 13.6373 35.7148 12.8853 35.7148 12C35.7148 11.1147 35.4108 10.368 34.8028 9.76C34.1948 9.14133 33.4482 8.832 32.5628 8.832C31.6775 8.832 30.9308 9.14133 30.3228 9.76C29.7148 10.368 29.4108 11.1147 29.4108 12C29.4108 12.8853 29.7148 13.6373 30.3228 14.256ZM45.7107 14.992C44.9001 15.792 43.9081 16.192 42.7347 16.192C41.5614 16.192 40.5641 15.792 39.7427 14.992C38.9321 14.1813 38.5267 13.184 38.5267 12C38.5267 10.816 38.9321 9.824 39.7427 9.024C40.5641 8.21333 41.5614 7.808 42.7347 7.808C43.9081 7.808 44.9001 8.21333 45.7107 9.024C46.5321 9.824 46.9427 10.816 46.9427 12C46.9427 13.184 46.5321 14.1813 45.7107 14.992ZM40.4947 14.256C41.1027 14.864 41.8494 15.168 42.7347 15.168C43.6201 15.168 44.3667 14.864 44.9747 14.256C45.5827 13.6373 45.8867 12.8853 45.8867 12C45.8867 11.1147 45.5827 10.368 44.9747 9.76C44.3667 9.14133 43.6201 8.832 42.7347 8.832C41.8494 8.832 41.1027 9.14133 40.4947 9.76C39.8867 10.368 39.5827 11.1147 39.5827 12C39.5827 12.8853 39.8867 13.6373 40.4947 14.256ZM55.4138 14.992C54.6032 15.792 53.6112 16.192 52.4378 16.192C51.2645 16.192 50.2672 15.792 49.4458 14.992C48.6352 14.1813 48.2298 13.184 48.2298 12C48.2298 10.816 48.6352 9.824 49.4458 9.024C50.2672 8.21333 51.2645 7.808 52.4378 7.808C53.6112 7.808 54.6032 8.21333 55.4138 9.024C56.2352 9.824 56.6458 10.816 56.6458 12C56.6458 13.184 56.2352 14.1813 55.4138 14.992ZM50.1978 14.256C50.8058 14.864 51.5525 15.168 52.4378 15.168C53.3232 15.168 54.0698 14.864 54.6778 14.256C55.2858 13.6373 55.5898 12.8853 55.5898 12C55.5898 11.1147 55.2858 10.368 54.6778 9.76C54.0698 9.14133 53.3232 8.832 52.4378 8.832C51.5525 8.832 50.8058 9.14133 50.1978 9.76C49.5898 10.368 49.2858 11.1147 49.2858 12C49.2858 12.8853 49.5898 13.6373 50.1978 14.256ZM65.293 8H66.349V15.68C66.349 16.832 65.9543 17.7387 65.165 18.4C64.3756 19.0613 63.4316 19.392 62.333 19.392C60.4556 19.392 59.1916 18.7413 58.541 17.44L59.469 16.912C59.949 17.8827 60.9036 18.368 62.333 18.368C63.2503 18.368 63.9703 18.1227 64.493 17.632C65.0263 17.152 65.293 16.5013 65.293 15.68V14.432C64.557 15.6053 63.4796 16.192 62.061 16.192C60.9196 16.192 59.9436 15.7867 59.133 14.976C58.333 14.1653 57.933 13.1733 57.933 12C57.933 10.8267 58.333 9.83467 59.133 9.024C59.9436 8.21333 60.9196 7.808 62.061 7.808C63.4796 7.808 64.557 8.39467 65.293 9.568V8ZM59.901 14.256C60.509 14.864 61.2556 15.168 62.141 15.168C63.0263 15.168 63.773 14.864 64.381 14.256C64.989 13.6373 65.293 12.8853 65.293 12C65.293 11.1147 64.989 10.368 64.381 9.76C63.773 9.14133 63.0263 8.832 62.141 8.832C61.2556 8.832 60.509 9.14133 59.901 9.76C59.293 10.368 58.989 11.1147 58.989 12C58.989 12.8853 59.293 13.6373 59.901 14.256ZM68.5848 16V4.32H69.6408V16H68.5848ZM75.5777 7.808C76.7617 7.808 77.7164 8.22933 78.4417 9.072C79.1777 9.904 79.5457 10.8907 79.5457 12.032C79.5457 12.1493 79.5351 12.3147 79.5137 12.528H72.4897C72.5964 13.3387 72.9377 13.984 73.5137 14.464C74.1004 14.9333 74.8204 15.168 75.6737 15.168C76.2817 15.168 76.8044 15.0453 77.2417 14.8C77.6897 14.544 78.0257 14.2133 78.2497 13.808L79.1777 14.352C78.8257 14.9173 78.3457 15.3653 77.7377 15.696C77.1297 16.0267 76.4364 16.192 75.6577 16.192C74.3991 16.192 73.3751 15.7973 72.5857 15.008C71.7964 14.2187 71.4017 13.216 71.4017 12C71.4017 10.8053 71.7911 9.808 72.5697 9.008C73.3484 8.208 74.3511 7.808 75.5777 7.808ZM75.5777 8.832C74.7457 8.832 74.0471 9.08267 73.4817 9.584C72.9271 10.0747 72.5964 10.7147 72.4897 11.504H78.4577C78.3511 10.6613 78.0257 10.0053 77.4817 9.536C76.9377 9.06667 76.3031 8.832 75.5777 8.832ZM89.5135 7.808C90.6548 7.808 91.6255 8.21333 92.4255 9.024C93.2361 9.83467 93.6415 10.8267 93.6415 12C93.6415 13.1733 93.2361 14.1653 92.4255 14.976C91.6255 15.7867 90.6548 16.192 89.5135 16.192C88.0948 16.192 87.0175 15.6053 86.2815 14.432V19.2H85.2255V8H86.2815V9.568C87.0175 8.39467 88.0948 7.808 89.5135 7.808ZM87.1935 14.256C87.8015 14.864 88.5481 15.168 89.4335 15.168C90.3188 15.168 91.0655 14.864 91.6735 14.256C92.2815 13.6373 92.5855 12.8853 92.5855 12C92.5855 11.1147 92.2815 10.368 91.6735 9.76C91.0655 9.14133 90.3188 8.832 89.4335 8.832C88.5481 8.832 87.8015 9.14133 87.1935 9.76C86.5855 10.368 86.2815 11.1147 86.2815 12C86.2815 12.8853 86.5855 13.6373 87.1935 14.256ZM102.277 8H103.333V16H102.277V14.432C101.541 15.6053 100.464 16.192 99.0453 16.192C97.904 16.192 96.928 15.7867 96.1173 14.976C95.3173 14.1653 94.9173 13.1733 94.9173 12C94.9173 10.8267 95.3173 9.83467 96.1173 9.024C96.928 8.21333 97.904 7.808 99.0453 7.808C100.464 7.808 101.541 8.39467 102.277 9.568V8ZM96.8853 14.256C97.4933 14.864 98.24 15.168 99.1253 15.168C100.011 15.168 100.757 14.864 101.365 14.256C101.973 13.6373 102.277 12.8853 102.277 12C102.277 11.1147 101.973 10.368 101.365 9.76C100.757 9.14133 100.011 8.832 99.1253 8.832C98.24 8.832 97.4933 9.14133 96.8853 9.76C96.2773 10.368 95.9733 11.1147 95.9733 12C95.9733 12.8853 96.2773 13.6373 96.8853 14.256ZM111.329 8H112.449L109.025 16.736C108.716 17.5253 108.273 18.144 107.697 18.592C107.132 19.0507 106.497 19.2533 105.793 19.2V18.208C106.753 18.3147 107.484 17.76 107.985 16.544L108.193 16.048L104.609 8H105.729L108.737 14.704L111.329 8Z" fill="#F0F0D6"/>
<g opacity="0.3">
<path d="M9.8988 23.9999C15.3658 23.9999 19.7976 19.5227 19.7976 13.9999C19.7976 8.47712 15.3658 4 9.8988 4C4.43184 4 0 8.47712 0 13.9999C0 19.5227 4.43184 23.9999 9.8988 23.9999Z" fill="#121212"/>
<path d="M9.89981 23.8923C15.3075 23.8923 19.6912 19.4637 19.6912 14.0008C19.6912 8.53793 15.3075 4.10938 9.89981 4.10938C4.49216 4.10938 0.108398 8.53793 0.108398 14.0008C0.108398 19.4637 4.49216 23.8923 9.89981 23.8923Z" stroke="#F0F0D6"/>
</g>
<path d="M9.89726 24.0017C8.0573 24.0046 6.25377 23.4874 4.68994 22.5081L11.3211 4.10352C12.4947 4.27399 13.629 4.65756 14.6674 5.23582C17.8334 6.99191 19.7999 10.352 19.7961 14.0008C19.7961 14.6778 19.7289 15.353 19.5947 16.0165C19.3358 17.296 18.8296 18.5106 18.1057 19.5926C17.0308 21.2005 15.5188 22.4587 13.7507 23.2152C13.1515 23.4709 12.5292 23.6665 11.8926 23.7983C11.2358 23.9339 10.5675 24.0017 9.89726 24.0017Z" fill="#6E7BF2"/>
<path d="M6.54038 13.9568C6.54326 13.7883 6.526 13.6207 6.48957 13.457H4.21143V14.3666H5.54897C5.49815 14.6891 5.31886 14.9758 5.05422 15.1618L5.04943 15.1918L5.7695 15.7555L5.81936 15.7604C6.30164 15.2896 6.56436 14.6349 6.5423 13.9578" fill="#4285F4"/>
<path d="M4.21085 16.354C4.80148 16.3704 5.37676 16.1583 5.81782 15.7602L5.05173 15.1606C4.80339 15.3292 4.50904 15.4144 4.21085 15.4057C3.58186 15.4018 3.02575 14.9921 2.83015 14.3867L2.80139 14.3887L2.05256 14.9747L2.04297 15.0018C2.4543 15.8309 3.29326 16.354 4.21085 16.354Z" fill="#34A853"/>
<path d="M2.83515 14.3873C2.78241 14.2313 2.75461 14.0676 2.75461 13.903C2.75556 13.7383 2.78241 13.5746 2.83323 13.4187L2.83227 13.3867L2.07385 12.791L2.04892 12.8026C1.70375 13.4952 1.70375 14.3108 2.04892 15.0033L2.83515 14.3873Z" fill="#FBBC05"/>
<path d="M4.21085 12.3987C4.5589 12.3929 4.89448 12.5236 5.14953 12.7638L5.83412 12.0887C5.39498 11.6722 4.81298 11.4436 4.21085 11.4514C3.29326 11.4514 2.4543 11.9734 2.04297 12.8026L2.82728 13.4186C3.02479 12.8132 3.58091 12.4035 4.21085 12.3987Z" fill="#EB4335"/>
<path d="M10.3577 14.1741V15.9554H9.79395V11.555H11.2887C11.6492 11.5473 11.9973 11.6838 12.2571 11.9357C12.7663 12.4093 12.7989 13.2113 12.329 13.7257C12.306 13.7508 12.2821 13.7751 12.2571 13.7983C11.9963 14.0482 11.6483 14.1828 11.2887 14.1732H10.3577V14.1741ZM10.3577 12.0974V13.6336H11.3031C11.5121 13.6404 11.7144 13.5571 11.8602 13.406C12.1545 13.1203 12.1632 12.6486 11.8803 12.3512C11.8784 12.3493 11.8765 12.3473 11.8746 12.3454C11.8698 12.3405 11.865 12.3347 11.8602 12.3309C11.7154 12.1768 11.5131 12.0916 11.3031 12.0974H10.3577ZM13.96 12.8471C14.3195 12.8268 14.6724 12.9469 14.9466 13.1813C15.194 13.4196 15.3253 13.7547 15.3081 14.0995V15.9554H14.7702V15.537H14.7462C14.5468 15.8624 14.193 16.0581 13.8143 16.0532C13.5113 16.0629 13.215 15.9573 12.9849 15.7578C12.7691 15.5757 12.6464 15.3045 12.6512 15.0207C12.6416 14.7301 12.773 14.4521 13.0031 14.2778C13.2764 14.0811 13.6071 13.9833 13.9427 14.0007C14.2294 13.9901 14.5142 14.053 14.7692 14.1848V14.054C14.7702 13.8603 14.6849 13.6763 14.5362 13.5542C14.3867 13.4196 14.193 13.346 13.9916 13.3479C13.6906 13.3411 13.4077 13.4922 13.2447 13.747L12.75 13.4331C13.0261 13.0379 13.4835 12.8152 13.961 12.8442L13.96 12.8471ZM13.2303 15.0342C13.2294 15.1805 13.2994 15.319 13.4173 15.4043C13.5419 15.5031 13.6973 15.5544 13.8555 15.5515C14.0933 15.5515 14.3205 15.4566 14.4902 15.2871C14.6676 15.1311 14.7702 14.9045 14.7702 14.6662C14.5554 14.5141 14.2965 14.4395 14.0348 14.455C13.8315 14.4473 13.6302 14.5054 13.4624 14.6216C13.3195 14.7107 13.2332 14.8667 13.2303 15.0342ZM18.4022 12.945L16.521 17.2834H15.9399L16.638 15.7656L15.4001 12.945H16.0128L16.9074 15.1079H16.9198L17.7895 12.945H18.4022Z" fill="#121212"/>
</g>
<defs>
<clipPath id="clip0_89_12144">
<rect width="145.511" height="24.0009" fill="white"/>
</clipPath>
</defs>
</svg>
