<svg width="101" height="24" viewBox="0 0 101 24" fill="none" xmlns="http://www.w3.org/2000/svg">
<path d="M34.9084 4.8C35.9111 4.8 36.7484 5.136 37.4204 5.808C38.0924 6.48 38.4284 7.31733 38.4284 8.32C38.4284 9.32267 38.0924 10.16 37.4204 10.832C36.7484 11.504 35.9111 11.84 34.9084 11.84H32.0284V16H30.9084V4.8H34.9084ZM34.9084 10.784C35.6018 10.784 36.1724 10.5547 36.6204 10.096C37.0791 9.62667 37.3084 9.03467 37.3084 8.32C37.3084 7.60533 37.0791 7.01867 36.6204 6.56C36.1724 6.09067 35.6018 5.856 34.9084 5.856H32.0284V10.784H34.9084ZM43.9299 7.808C44.9006 7.808 45.6633 8.10667 46.2179 8.704C46.7833 9.29067 47.0659 10.0853 47.0659 11.088V16H46.0099V11.088C46.0099 10.3733 45.8179 9.81867 45.4339 9.424C45.0606 9.02933 44.5273 8.832 43.8339 8.832C43.0659 8.832 42.4419 9.07733 41.9619 9.568C41.4819 10.048 41.2419 10.7947 41.2419 11.808V16H40.1859V4.8H41.2419V9.248C41.8393 8.288 42.7353 7.808 43.9299 7.808ZM55.8118 14.992C55.0011 15.792 54.0091 16.192 52.8358 16.192C51.6625 16.192 50.6651 15.792 49.8438 14.992C49.0331 14.1813 48.6278 13.184 48.6278 12C48.6278 10.816 49.0331 9.824 49.8438 9.024C50.6651 8.21333 51.6625 7.808 52.8358 7.808C54.0091 7.808 55.0011 8.21333 55.8118 9.024C56.6331 9.824 57.0438 10.816 57.0438 12C57.0438 13.184 56.6331 14.1813 55.8118 14.992ZM50.5958 14.256C51.2038 14.864 51.9505 15.168 52.8358 15.168C53.7211 15.168 54.4678 14.864 55.0758 14.256C55.6838 13.6373 55.9878 12.8853 55.9878 12C55.9878 11.1147 55.6838 10.368 55.0758 9.76C54.4678 9.14133 53.7211 8.832 52.8358 8.832C51.9505 8.832 51.2038 9.14133 50.5958 9.76C49.9878 10.368 49.6838 11.1147 49.6838 12C49.6838 12.8853 49.9878 13.6373 50.5958 14.256ZM62.5549 7.808C63.5256 7.808 64.2883 8.10667 64.8429 8.704C65.4083 9.29067 65.6909 10.0853 65.6909 11.088V16H64.6349V11.088C64.6349 10.3733 64.4429 9.81867 64.0589 9.424C63.6856 9.02933 63.1523 8.832 62.4589 8.832C61.6909 8.832 61.0669 9.07733 60.5869 9.568C60.1069 10.048 59.8669 10.7947 59.8669 11.808V16H58.8109V8H59.8669V9.248C60.4643 8.288 61.3603 7.808 62.5549 7.808ZM71.4288 7.808C72.6128 7.808 73.5675 8.22933 74.2928 9.072C75.0288 9.904 75.3968 10.8907 75.3968 12.032C75.3968 12.1493 75.3861 12.3147 75.3648 12.528H68.3408C68.4475 13.3387 68.7888 13.984 69.3648 14.464C69.9515 14.9333 70.6715 15.168 71.5248 15.168C72.1328 15.168 72.6555 15.0453 73.0928 14.8C73.5408 14.544 73.8768 14.2133 74.1008 13.808L75.0288 14.352C74.6768 14.9173 74.1968 15.3653 73.5888 15.696C72.9808 16.0267 72.2875 16.192 71.5088 16.192C70.2501 16.192 69.2261 15.7973 68.4368 15.008C67.6475 14.2187 67.2528 13.216 67.2528 12C67.2528 10.8053 67.6421 9.808 68.4208 9.008C69.1995 8.208 70.2021 7.808 71.4288 7.808ZM71.4288 8.832C70.5968 8.832 69.8981 9.08267 69.3328 9.584C68.7781 10.0747 68.4475 10.7147 68.3408 11.504H74.3088C74.2021 10.6613 73.8768 10.0053 73.3328 9.536C72.7888 9.06667 72.1541 8.832 71.4288 8.832ZM85.3645 7.808C86.5059 7.808 87.4765 8.21333 88.2765 9.024C89.0872 9.83467 89.4925 10.8267 89.4925 12C89.4925 13.1733 89.0872 14.1653 88.2765 14.976C87.4765 15.7867 86.5059 16.192 85.3645 16.192C83.9459 16.192 82.8685 15.6053 82.1325 14.432V19.2H81.0765V8H82.1325V9.568C82.8685 8.39467 83.9459 7.808 85.3645 7.808ZM83.0445 14.256C83.6525 14.864 84.3992 15.168 85.2845 15.168C86.1699 15.168 86.9165 14.864 87.5245 14.256C88.1325 13.6373 88.4365 12.8853 88.4365 12C88.4365 11.1147 88.1325 10.368 87.5245 9.76C86.9165 9.14133 86.1699 8.832 85.2845 8.832C84.3992 8.832 83.6525 9.14133 83.0445 9.76C82.4365 10.368 82.1325 11.1147 82.1325 12C82.1325 12.8853 82.4365 13.6373 83.0445 14.256ZM94.9444 7.808C96.1284 7.808 97.0831 8.22933 97.8084 9.072C98.5444 9.904 98.9124 10.8907 98.9124 12.032C98.9124 12.1493 98.9018 12.3147 98.8804 12.528H91.8564C91.9631 13.3387 92.3044 13.984 92.8804 14.464C93.4671 14.9333 94.1871 15.168 95.0404 15.168C95.6484 15.168 96.1711 15.0453 96.6084 14.8C97.0564 14.544 97.3924 14.2133 97.6164 13.808L98.5444 14.352C98.1924 14.9173 97.7124 15.3653 97.1044 15.696C96.4964 16.0267 95.8031 16.192 95.0244 16.192C93.7658 16.192 92.7418 15.7973 91.9524 15.008C91.1631 14.2187 90.7684 13.216 90.7684 12C90.7684 10.8053 91.1578 9.808 91.9364 9.008C92.7151 8.208 93.7178 7.808 94.9444 7.808ZM94.9444 8.832C94.1124 8.832 93.4138 9.08267 92.8484 9.584C92.2938 10.0747 91.9631 10.7147 91.8564 11.504H97.8244C97.7178 10.6613 97.3924 10.0053 96.8484 9.536C96.3044 9.06667 95.6698 8.832 94.9444 8.832Z" fill="#F0F0D6"/>
<path d="M18.7395 15.5114C19.8324 10.8181 16.9663 6.11503 12.338 5.00679C7.7097 3.89855 3.07175 6.80482 1.97886 11.4981C0.885965 16.1914 3.75199 20.8945 8.3803 22.0027C13.0086 23.111 17.6466 20.2047 18.7395 15.5114Z" fill="#5F259F"/>
<path d="M14.2662 11.2261C14.2662 10.8847 13.9777 10.5918 13.6407 10.5918H12.4863L9.84076 7.51865C9.60008 7.22607 9.21527 7.12844 8.83046 7.22607L7.91643 7.51865C7.77231 7.56747 7.72389 7.76272 7.82016 7.86005L10.7067 10.6406H6.32906C6.18465 10.6406 6.08838 10.7383 6.08838 10.8847V11.3722C6.08838 11.7139 6.3772 12.0065 6.71387 12.0065H7.38721V14.3478C7.38721 16.1042 8.30124 17.1284 9.84076 17.1284C10.3216 17.1284 10.7067 17.0796 11.1874 16.8846V18.4455C11.1861 18.5483 11.2051 18.6504 11.2433 18.7457C11.2816 18.841 11.3382 18.9275 11.4099 19.0003C11.4817 19.073 11.567 19.1304 11.661 19.1692C11.755 19.2079 11.8556 19.2272 11.9571 19.2259H12.6307C12.7748 19.2259 12.9192 19.0797 12.9192 18.9336V11.9577H14.0258C14.1699 11.9577 14.2662 11.8601 14.2662 11.7139V11.2261ZM11.1877 15.4211C10.8989 15.5672 10.5141 15.6163 10.2256 15.6163C9.45595 15.6163 9.07086 15.2261 9.07086 14.3478V12.0065H11.1874L11.1877 15.4211Z" fill="#121212"/>
</svg>
