<svg width="146" height="24" viewBox="0 0 146 24" fill="none" xmlns="http://www.w3.org/2000/svg">
<g clip-path="url(#clip0_89_12134)">
<path d="M33.1253 7.808C34.2666 7.808 35.2373 8.21333 36.0373 9.024C36.848 9.83467 37.2533 10.8267 37.2533 12C37.2533 13.1733 36.848 14.1653 36.0373 14.976C35.2373 15.7867 34.2666 16.192 33.1253 16.192C31.7066 16.192 30.6293 15.6053 29.8933 14.432V19.2H28.8373V8H29.8933V9.568C30.6293 8.39467 31.7066 7.808 33.1253 7.808ZM30.8053 14.256C31.4133 14.864 32.16 15.168 33.0453 15.168C33.9306 15.168 34.6773 14.864 35.2853 14.256C35.8933 13.6373 36.1973 12.8853 36.1973 12C36.1973 11.1147 35.8933 10.368 35.2853 9.76C34.6773 9.14133 33.9306 8.832 33.0453 8.832C32.16 8.832 31.4133 9.14133 30.8053 9.76C30.1973 10.368 29.8933 11.1147 29.8933 12C29.8933 12.8853 30.1973 13.6373 30.8053 14.256ZM45.8892 8H46.9452V16H45.8892V14.432C45.1532 15.6053 44.0758 16.192 42.6572 16.192C41.5158 16.192 40.5398 15.7867 39.7292 14.976C38.9292 14.1653 38.5292 13.1733 38.5292 12C38.5292 10.8267 38.9292 9.83467 39.7292 9.024C40.5398 8.21333 41.5158 7.808 42.6572 7.808C44.0758 7.808 45.1532 8.39467 45.8892 9.568V8ZM40.4972 14.256C41.1052 14.864 41.8518 15.168 42.7372 15.168C43.6225 15.168 44.3692 14.864 44.9772 14.256C45.5852 13.6373 45.8892 12.8853 45.8892 12C45.8892 11.1147 45.5852 10.368 44.9772 9.76C44.3692 9.14133 43.6225 8.832 42.7372 8.832C41.8518 8.832 41.1052 9.14133 40.4972 9.76C39.8892 10.368 39.5852 11.1147 39.5852 12C39.5852 12.8853 39.8892 13.6373 40.4972 14.256ZM54.941 8H56.061L52.637 16.736C52.3277 17.5253 51.885 18.144 51.309 18.592C50.7437 19.0507 50.109 19.2533 49.405 19.2V18.208C50.365 18.3147 51.0957 17.76 51.597 16.544L51.805 16.048L48.221 8H49.341L52.349 14.704L54.941 8ZM61.5773 9.024H59.2733V13.872C59.2733 14.3093 59.3586 14.624 59.5293 14.816C59.7 14.9973 59.956 15.0933 60.2973 15.104C60.6386 15.104 61.0653 15.0933 61.5773 15.072V16C60.4573 16.1707 59.6146 16.0907 59.0493 15.76C58.4946 15.4293 58.2173 14.8 58.2173 13.872V9.024H56.5373V8H58.2173V6.08L59.2733 5.76V8H61.5773V9.024ZM71.8653 7.808C72.7613 7.808 73.4813 8.096 74.0253 8.672C74.58 9.248 74.8573 10.0267 74.8573 11.008V16H73.8013V11.008C73.8013 10.3147 73.62 9.78133 73.2573 9.408C72.9053 9.024 72.436 8.832 71.8493 8.832C71.188 8.832 70.6493 9.056 70.2333 9.504C69.828 9.94133 69.6253 10.6293 69.6253 11.568V16H68.5693V11.008C68.5693 10.304 68.3986 9.76533 68.0573 9.392C67.7266 9.01867 67.2733 8.832 66.6973 8.832C66.0573 8.832 65.5133 9.056 65.0653 9.504C64.6173 9.952 64.3933 10.64 64.3933 11.568V16H63.3373V8H64.3933V9.168C64.9693 8.26133 65.7853 7.808 66.8413 7.808C67.9933 7.808 68.804 8.29333 69.2733 9.264C69.8493 8.29333 70.7133 7.808 71.8653 7.808Z" fill="#F0F0D6"/>
<path d="M19.7319 11.8425C19.5522 11.3253 19.0624 10.9539 18.4872 10.9539H18.4751C18.1012 10.9539 17.7641 11.1105 17.5243 11.3621C17.284 11.1105 16.9469 10.9539 16.5734 10.9539H16.5613C16.2326 10.9539 15.9321 11.0751 15.7014 11.2756V11.1736C15.6935 11.072 15.6105 10.9922 15.508 10.9922H14.6256C14.5177 10.9922 14.4305 11.08 14.4305 11.189V16.0127C14.4305 16.1217 14.5177 16.2094 14.6256 16.2094H15.508C15.6063 16.2094 15.6873 16.1354 15.7002 16.0398L15.6998 12.5769C15.6998 12.5648 15.7002 12.5536 15.7015 12.5423C15.7155 12.3877 15.828 12.2607 16.0057 12.2447H16.1684C16.2427 12.2514 16.3054 12.2777 16.3547 12.3174C16.4315 12.3788 16.4742 12.4733 16.4742 12.5769L16.4775 16.0227C16.4775 16.1318 16.5651 16.2199 16.6726 16.2199H17.555C17.6591 16.2199 17.7439 16.1364 17.7488 16.0323L17.7485 12.5724C17.7481 12.4587 17.8003 12.356 17.892 12.295C17.9372 12.2657 17.9917 12.2461 18.0543 12.2402H18.217C18.4079 12.2569 18.5233 12.4028 18.5229 12.5724L18.5262 16.0135C18.5262 16.1226 18.6138 16.2103 18.7213 16.2103H19.6036C19.7111 16.2103 19.7987 16.1225 19.7987 16.0135V12.3126C19.7987 12.0602 19.7705 11.9528 19.7319 11.8425ZM13.7583 11.0048H13.2536V10.1792C13.2536 10.0802 13.1739 10 13.0755 10C13.0639 10 13.0527 10.0017 13.0419 10.0037C12.4824 10.1583 12.5944 10.9384 11.5731 11.0048H11.4739C11.4589 11.0048 11.4448 11.0069 11.4311 11.0098H11.4303L11.4311 11.0102C11.3439 11.0299 11.2783 11.1076 11.2783 11.2012V12.0895C11.2783 12.1977 11.3659 12.2859 11.4738 12.2859H12.0063L12.0055 16.0525C12.0055 16.1599 12.0918 16.2468 12.1985 16.2468H13.0709C13.1771 16.2468 13.2635 16.1599 13.2635 16.0525L13.2639 12.2859H13.7582C13.8657 12.2859 13.9532 12.1977 13.9532 12.0895V11.2013C13.9534 11.093 13.8658 11.0048 13.7583 11.0048Z" fill="#54C1F0"/>
<path d="M10.5833 11.0041H9.70092C9.59345 11.0041 9.50626 11.0922 9.50626 11.2004V13.0371C9.5042 13.1508 9.41289 13.2419 9.29957 13.2419H8.93021C8.81569 13.2419 8.72311 13.1492 8.72311 13.0338L8.71979 11.2004C8.71979 11.0922 8.6322 11.0041 8.52473 11.0041H7.64228C7.53434 11.0041 7.44722 11.0922 7.44722 11.2004V13.2135C7.44722 13.9781 7.98883 14.5233 8.74877 14.5233C8.74877 14.5233 9.31905 14.5233 9.33647 14.5267C9.43942 14.5384 9.51949 14.6253 9.51949 14.7323C9.51949 14.838 9.44101 14.9245 9.33932 14.9374C9.33433 14.9382 9.32974 14.9395 9.32435 14.9404L8.03397 14.945C7.92603 14.945 7.83892 15.0332 7.83892 15.1413V16.0292C7.83892 16.1379 7.92611 16.2256 8.03397 16.2256H9.47664C10.237 16.2256 10.7782 15.6807 10.7782 14.9157V11.2005C10.7784 11.0922 10.6912 11.0041 10.5833 11.0041ZM2.12002 11.0039H0.191332C0.0855293 11.0039 0 11.0903 0 11.1965V12.0668C0 12.0685 0.000395969 12.0702 0.000395969 12.0719C0.000395969 12.076 0 12.0802 0 12.084V16.0231C0 16.13 0.0796689 16.2173 0.178503 16.2198H1.07751C1.18498 16.2198 1.27256 16.132 1.27256 16.0235L1.27589 14.6735H2.1201C2.8265 14.6735 3.31877 14.1801 3.31877 13.466V12.2131C3.31869 11.499 2.82643 11.0039 2.12002 11.0039ZM2.04241 13.1798C2.04241 13.2947 1.94983 13.3883 1.83571 13.3883L1.27581 13.3887V12.2903H1.83571C1.94983 12.2903 2.04241 12.383 2.04241 12.4984V13.1798ZM5.56328 11.0089H4.33895C4.23061 11.0089 4.14302 11.0917 4.14302 11.1932V11.5387C4.14302 11.5408 4.14342 11.5433 4.14342 11.5454C4.14342 11.5479 4.14302 11.5504 4.14302 11.5529V12.0263C4.14302 12.1337 4.236 12.2213 4.35051 12.2213H5.5164C5.6085 12.2359 5.6816 12.3036 5.69197 12.4093V12.5238C5.6816 12.6245 5.60937 12.698 5.52139 12.7064H4.94407C4.1762 12.7064 3.62921 13.2199 3.62921 13.941V14.9738C3.62921 15.6908 4.09947 16.2009 4.86186 16.2009H6.46189C6.74913 16.2009 6.98196 15.982 6.98196 15.7125V12.3422C6.98196 11.525 6.56358 11.0089 5.56328 11.0089ZM5.70361 14.8558C5.70361 14.8671 5.70195 14.8779 5.70029 14.8884C5.69821 14.8982 5.69543 14.9078 5.69197 14.9172C5.66457 14.995 5.58736 15.0513 5.49565 15.0513H5.12835C5.01384 15.0513 4.92039 14.9636 4.92039 14.8558V14.6882C4.92039 14.6861 4.91999 14.684 4.91999 14.6819L4.92039 14.2361V14.0966L4.92078 14.0953C4.92118 13.9879 5.01376 13.901 5.12827 13.901H5.49557C5.61056 13.901 5.70354 13.9883 5.70354 14.0966V14.8558H5.70361Z" fill="#233266"/>
</g>
<defs>
<clipPath id="clip0_89_12134">
<rect width="145.514" height="24" fill="white"/>
</clipPath>
</defs>
</svg>
